/* XPM */
static char *result[] = {
/* columns rows colors chars-per-pixel */
"16 16 89 1 ",
"  c #4F0702",
". c #4F0802",
"X c #570C02",
"o c #5B0E02",
"O c #651E04",
"+ c #6D1A01",
"@ c #6D1B01",
"# c #6E1B01",
"$ c #6F1F02",
"% c #6B2505",
"& c #6C2605",
"* c #68240B",
"= c #752001",
"- c #752002",
"; c #762002",
": c #782301",
"> c #7B3405",
", c #007070",
"< c #823103",
"1 c #843303",
"2 c #863604",
"3 c #8A3B05",
"4 c #8A4507",
"5 c #8E4707",
"6 c #904204",
"7 c #A65F08",
"8 c #AD6E0A",
"9 c #B36F0B",
"0 c #B3700B",
"q c #B4700B",
"w c #B4720B",
"e c #BA7609",
"r c #BF7C0A",
"t c #A16010",
"y c #B97A10",
"u c #B78426",
"i c #B7882E",
"p c #C2840B",
"a c #C8880B",
"s c #CF910C",
"d c #D0920C",
"f c #D0930D",
"g c #D5980D",
"h c #DB9F0D",
"j c #D89D0F",
"k c #C18511",
"l c #D19714",
"z c #DEA30D",
"x c #DEA40E",
"c c #DEA40F",
"v c #DFA40F",
"b c #DFA611",
"n c #D4A019",
"m c #E0A814",
"M c #E0A916",
"N c #E1AA17",
"B c #E1AB18",
"V c #E1AC1A",
"C c #E1AD1A",
"Z c #E2AD1B",
"A c #E2B11C",
"S c #D7A62A",
"D c #E5B932",
"F c #E8BD32",
"G c #E1B93C",
"H c #EAC238",
"J c #EAC43B",
"K c #EBC53C",
"L c #EBCA3F",
"P c #EDCB45",
"I c #EDCC45",
"U c #EED149",
"Y c #EED64C",
"T c #EDD848",
"R c #EDDD4B",
"E c #EDDD4C",
"W c #EEDE4D",
"Q c #EFE252",
"! c #EFE354",
"~ c #EFE255",
"^ c #F0E253",
"/ c #F0E354",
"( c #F0E756",
") c #F0E757",
"_ c #F0E857",
"` c #F4F489",
"' c #F5F594",
"] c #F9FAC6",
"[ c #FBFCDC",
/* pixels */
",,,,,,,,,,,,,,,,",
",,,,,,,,,$,,,,,,",
",,,,,,,,qO,,,,,,",
",,,,,,,,3,,,,,,,",
",,,,,97#o+=,,,,,",
",,,wj[k*tGb:-,,,",
",,0sR`]]]'~n1=,,",
",,0sT_/(/^IWy@,,",
",,0sL)Y/YUPQuX,,",
",,<rNUKACJZ!i ,,",
",,=ezcxBHVzE8 ,,",
",,,;axFvmMJp.,,,",
",,,,5dhlSDf4,,,,",
",,,, wg00gw ,,,,",
",,,,,&622>%,,,,,",
",,,,,,,,,,,,,,,,"
};
