/* XPM */
static char *result[] = {
/* columns rows colors chars-per-pixel */
"16 16 10 1 ",
"  c #242234",
". c #423934",
"X c #5A4E44",
"o c #796755",
"O c #4A5462",
"+ c #A08662",
"@ c #6D758D",
"# c #8B93AF",
"$ c #B3B9D1",
"% c #DAE0EA",
/* pixels */
"oooXX+oooooXX.XX",
"oooXX+oooooXX.XX",
"oooXX+oooooXX.XX",
"oooXX+oooooXX.XX",
"oooXX+oooooXX.XX",
"oooXX+oooooXX.XX",
"oooXX+oooooXX.XX",
"oooXX+oooooXX.XX",
"oooXX+oooooXX.XX",
"oooXX+oooooXX.XX",
"oooooX++ooX..X..",
"$$%$$######@@@OO",
"$$%$$######@@@OO",
"$$%$$######@@@OO",
"  XXX.XXXXXXX...",
"  XXX.XXXXXXX..."
};
