/* XPM */
static char *result[] = {
/* columns rows colors chars-per-pixel */
"16 16 2 1 ",
"  c #242234",
". c #333941",
/* pixels */
"   ..           ",
"   ..           ",
"  ....          ",
"................",
"................",
"..         ..   ",
"..         ..   ",
"..         ..   ",
"..         ..   ",
"..         ..   ",
"..         ..   ",
"...       ....  ",
"...       ....  ",
"................",
"        ..      ",
"        ..      "
};
