/* XPM */
static char *result[] = {
/* columns rows colors chars-per-pixel */
"16 16 6 1 ",
"  c #333941",
". c #4A5462",
"X c #6D758D",
"o c #8B93AF",
"O c #B3B9D1",
"+ c #DAE0EA",
/* pixels */
"   .....XX    ..",
"   .....XX    ..",
"   .....XX XXXXX",
"   ...XXXX   XXX",
"   ...XXXX   XXX",
"......XXXX      ",
"..XXXXXX  +OOOOO",
"..XXXXXX  +OOOOO",
"          Oooooo",
"          Oooooo",
"...XXX..  Oooooo",
".....XXX  Oooooo",
".....XXX  Oooooo",
".....XXX  Oooooo",
"...XXX    oXXXXX",
"...XXX    oXXXXX"
};
